<?xml version="1.0" encoding="utf-8"?>
<!-- Svg Vector Icons : http://www.onlinewebfonts.com/icon -->
<!DOCTYPE svg PUBLIC "-//W3C//DTD SVG 1.1//EN" "http://www.w3.org/Graphics/SVG/1.1/DTD/svg11.dtd">
<svg version="1.1" xmlns="http://www.w3.org/2000/svg" xmlns:xlink="http://www.w3.org/1999/xlink" x="0px" y="0px" viewBox="0 0 1000 1000" enable-background="new 0 0 1000 1000" xml:space="preserve">
<style type="text/css">
	path{fill:#d1d1d1;}
</style>
<metadata> Svg Vector Icons : http://www.onlinewebfonts.com/icon </metadata>
<g><path d="M863,248.3c0,0-27.5-33.9-67.6-33.9l-588.6,0.2c0,0-40.3,1.1-69.8,32.6c0,0-127,196.2-127,233.3v237.9c0,37.1,30.3,67.2,67.6,67.2h844.8c37.3,0,67.6-30.1,67.6-67.2V480.5C990,443.4,863,248.3,863,248.3z M641.3,462.1L641.3,462.1c-21.2,0-29.2,14.1-32.1,23.5c0.1,1.7,0.3,3.4,0.3,5.1c0,60.7-49.2,109.9-109.9,109.9c-60.7,0-109.9-49.2-109.9-109.9c0-2.2,0.2-4.4,0.3-6.5c-7.8-21.9-31.3-22-31.3-22H82.2l94.2-164.7c0,0,18.3-31.8,35.9-31.5h587.5c0,0,16.9,7.4,31.7,31.5l91.7,164.7H641.3z"/></g>
</svg>